<?xml version="1.0" encoding="UTF-8"?>
<svg id="_レイヤー_1" xmlns="http://www.w3.org/2000/svg" width="489.8" height="159.9" version="1.1" viewBox="0 0 489.8 159.9">
  <!-- Generator: Adobe Illustrator 29.0.1, SVG Export Plug-In . SVG Version: 2.1.0 Build 192)  -->
  <circle cx="79.9" cy="79.9" r="79.9" fill="#569ff6"/>
  <path d="M75.8,89.6c19.7,9.8,37-7,37-24.6s-8.2-24.7-25.9-24.7-34.3,18.4-34.3,31.1,2.9,11.2,2.9,11.2l-10,7.4s-5-7.7-5-18.2c0-19.8,16.6-43,46.6-43s39.7,16.7,39.7,35.9-23.5,48.6-54.6,34.3l-13.6,33.7h-14.8l28.1-69.8c3.4-8.3,11-16.2,20.9-16.2l2.6,8.5s-6.4,2.3-10.3,11.8l-9.2,22.7h-.1Z" fill="#fff"/>
  <g>
    <path d="M222,86.7c15,7.4,28.2-5.4,28.2-18.8s-6.2-18.9-19.7-18.9-26.1,14-26.1,23.7,2.2,8.5,2.2,8.5l-7.6,5.7s-3.9-5.9-3.9-14c0-15.1,12.6-32.7,35.5-32.7s30.3,12.7,30.3,27.4-17.9,37-41.7,26.1l-10.4,25.7h-11.2l21.4-53.2c2.5-6.3,8.4-12.4,15.9-12.4l2,6.5s-4.8,1.8-7.9,8.9l-7,17.3h-.1Z" fill="#3e3a39"/>
    <path d="M309.3,96.6c-5.4,9.2-13.4,15.2-22.7,13.3-4.4,5.6-10.3,9.7-17.5,9.7s-13.9-5-13.9-14.5,9.2-35.4,26.8-35.4,13.7,4.8,13.7,14.3-1.9,13.2-5.5,20.1c4.7.3,10-2.8,14.7-10.6,1.6,0,3.8,1.7,4.3,3.1h0ZM277.3,105.8c-1-1.2-1.8-2.6-1.8-4.4,0-3.7,3.1-6.6,6.8-6.2,1.9-4.8,3.1-9.8,3.1-12.8s-1.7-5.2-3.7-5.2c-7.8,0-16.2,21.6-16.2,29.6s1.5,5.4,3.9,5.4,5.4-2.5,7.9-6.2h-.1Z" fill="#3e3a39"/>
    <path d="M334.4,96.6c-7.2,12.6-15.6,23-25.3,23s-12.7-5.6-6.1-22l10.7-26.7h11.2l-12.1,29.9c-4,10.1-2.3,11.8-.4,11.8,4.3,0,11.2-8.2,17.5-19,1.6,0,3.8,1.7,4.3,3.1h.1ZM317.7,59.4c0-3.6,2.8-6.4,6.4-6.4s6.5,2.8,6.5,6.4-2.9,6.4-6.5,6.4-6.4-2.9-6.4-6.4Z" fill="#3e3a39"/>
    <path d="M378.5,86.7c15,7.4,28.2-5.4,28.2-18.8s-6.2-18.9-19.7-18.9-26.1,14-26.1,23.7,2.2,8.5,2.2,8.5l-7.6,5.7s-3.9-5.9-3.9-14c0-15.1,12.6-32.7,35.5-32.7s30.3,12.7,30.3,27.4-17.9,37-41.7,26.1l-10.4,25.7h-11.2l21.4-53.2c2.5-6.3,8.4-12.4,15.9-12.4l2,6.5s-4.8,1.8-7.9,8.9l-7,17.3h-.1Z" fill="#3e3a39"/>
    <path d="M465.8,96.6c-5.4,9.2-13.4,15.2-22.7,13.3-4.4,5.6-10.3,9.7-17.5,9.7s-13.9-5-13.9-14.5,9.2-35.4,26.8-35.4,13.7,4.8,13.7,14.3-1.9,13.2-5.5,20.1c4.7.3,10-2.8,14.7-10.6,1.6,0,3.8,1.7,4.3,3.1h0ZM433.8,105.8c-1-1.2-1.8-2.6-1.8-4.4,0-3.7,3.1-6.6,6.8-6.2,1.9-4.8,3.1-9.8,3.1-12.8s-1.7-5.2-3.7-5.2c-7.8,0-16.2,21.6-16.2,29.6s1.5,5.4,3.9,5.4,5.4-2.5,7.9-6.2h-.1Z" fill="#3e3a39"/>
    <path d="M491,96.6c-7.2,12.6-15.6,23-25.3,23s-12.7-5.6-6.1-22l10.7-26.7h11.2l-12.1,29.9c-4,10.1-2.3,11.8-.4,11.8,4.3,0,11.2-8.2,17.5-19,1.6,0,3.8,1.7,4.3,3.1h.1ZM474.2,59.4c0-3.6,2.8-6.4,6.4-6.4s6.5,2.8,6.5,6.4-2.9,6.4-6.5,6.4-6.4-2.9-6.4-6.4Z" fill="#3e3a39"/>
  </g>
</svg>